<svg width="24" height="25" viewBox="0 0 24 25" fill="none" xmlns="http://www.w3.org/2000/svg">
<g clip-path="url(#clip0_327_4939)">
<path fill-rule="evenodd" clip-rule="evenodd" d="M7.12305 18.0359C7.12305 18.6063 7.59011 19.0736 8.16011 19.0736H13.7361C14.3061 19.0736 14.7718 18.6062 14.7718 18.0359C14.7718 17.4656 14.3061 16.9995 13.7361 16.9995H8.16011C7.59011 16.9995 7.12305 17.4656 7.12305 18.0359Z" fill="#ECF2F3"/>
<path fill-rule="evenodd" clip-rule="evenodd" d="M8.26567 21.1465H13.6305H13.7361C14.3061 21.1465 14.7718 20.6805 14.7718 20.1101C14.7718 19.5398 14.3061 19.0737 13.7361 19.0737H8.16011C7.59011 19.0737 7.12305 19.5398 7.12305 20.1101C7.12305 20.6805 7.59011 21.1465 8.16011 21.1465H8.26567Z" fill="#ECF2F3"/>
<path fill-rule="evenodd" clip-rule="evenodd" d="M8.26758 22.5077C8.26758 23.2563 8.87981 23.8676 9.62658 23.8676H12.2721C13.0202 23.8676 13.6324 23.2563 13.6324 22.5077V21.1465H8.26758V22.5077Z" fill="#BFDBFF"/>
<path fill-rule="evenodd" clip-rule="evenodd" d="M10.8678 10.8063L11.2201 11.1588C11.4048 11.3436 11.4048 11.6459 11.2201 11.8308L10.2793 12.7721C10.0945 12.9569 9.79239 12.9569 9.6077 12.7721L9.25539 12.4196C8.76456 12.7312 8.21697 12.9622 7.63117 13.0943V13.5907C7.63117 13.8521 7.41742 14.066 7.15619 14.066H6.56641C7.12717 14.8898 7.61008 15.7863 7.78427 16.9996H14.1149C14.491 14.3736 16.3091 13.2342 17.2578 11.0993C17.6062 10.3137 17.8371 9.39486 17.8358 8.21717C17.8345 7.14777 17.6379 6.18397 17.2922 5.33633C16.9676 4.54283 16.5137 3.851 15.9687 3.27144C14.6295 1.65411 12.4247 1.28047 12.4247 1.28047C11.9378 1.17617 11.443 1.12733 10.9495 1.13394C9.72513 1.11678 8.4888 1.44683 7.40819 2.08719C7.54145 2.1717 7.63117 2.32086 7.63117 2.48989V2.9863C8.21702 3.11834 8.76456 3.34939 9.25539 3.66097L9.6077 3.30847C9.79244 3.12364 10.0946 3.12364 10.2793 3.30847L11.2201 4.24981C11.4048 4.43464 11.4048 4.73698 11.2201 4.92181L10.8678 5.27431C11.1791 5.76547 11.41 6.31334 11.542 6.89956H12.0381C12.2994 6.89956 12.5131 7.11345 12.5131 7.37488V8.7057C12.5131 8.96712 12.2994 9.18102 12.0381 9.18102H11.542C11.41 9.76719 11.1791 10.3151 10.8678 10.8063Z" fill="#FFE6B4"/>
<path fill-rule="evenodd" clip-rule="evenodd" d="M0.943734 6.89919C0.6825 6.89919 0.46875 7.11308 0.46875 7.3745V8.70533C0.46875 8.96675 0.6825 9.18064 0.943734 9.18064H1.43986C1.57181 9.76686 1.80272 10.3147 2.11411 10.8059L1.7618 11.1584C1.57706 11.3432 1.57706 11.6456 1.7618 11.8304L2.70258 12.7717C2.88731 12.9566 3.18947 12.9566 3.37416 12.7717L3.72647 12.4192C4.2173 12.7308 4.76489 12.9619 5.35069 13.0939V13.5903C5.35069 13.8517 5.56444 14.0656 5.82567 14.0656H6.56588H7.15566C7.41689 14.0656 7.63064 13.8517 7.63064 13.5903V13.0939C8.21648 12.9619 8.76403 12.7308 9.25486 12.4192L9.60717 12.7717C9.79191 12.9566 10.0941 12.9566 10.2787 12.7717L11.2195 11.8304C11.4043 11.6456 11.4043 11.3432 11.2195 11.1584L10.8672 10.8059C11.1786 10.3147 11.4095 9.76686 11.5415 9.18064H12.0376C12.2988 9.18064 12.5126 8.96675 12.5126 8.70533V7.3745C12.5126 7.11308 12.2988 6.89919 12.0376 6.89919H11.5415C11.4095 6.31297 11.1786 5.7651 10.8672 5.27394L11.2195 4.92144C11.4043 4.73661 11.4043 4.43427 11.2195 4.24944L10.2787 3.3081C10.094 3.12327 9.79186 3.12327 9.60717 3.3081L9.25486 3.6606C8.76403 3.34902 8.21644 3.11797 7.63064 2.98593V2.48947C7.63064 2.32049 7.54092 2.17129 7.40766 2.08677C7.33509 2.04055 7.248 2.01416 7.15566 2.01416H5.82567C5.56444 2.01416 5.35069 2.22805 5.35069 2.48947V2.98588C4.76484 3.11793 4.2173 3.34897 3.72647 3.66055L3.37416 3.30805C3.18942 3.12322 2.88727 3.12322 2.70258 3.30805L1.7618 4.24939C1.57706 4.43422 1.57706 4.73657 1.7618 4.92139L2.11411 5.27389C1.80272 5.76505 1.57181 6.31293 1.43986 6.89914H0.943734V6.89919Z" fill="#BFDBFF"/>
<path fill-rule="evenodd" clip-rule="evenodd" d="M22.2708 2.15967C21.6453 2.15967 21.1387 2.66667 21.1387 3.29245C21.1387 3.91823 21.6453 4.42523 22.2708 4.42523C22.8962 4.42523 23.4041 3.91823 23.4041 3.29245C23.4041 2.66667 22.8962 2.15967 22.2708 2.15967Z" fill="#BEECE1"/>
<path fill-rule="evenodd" clip-rule="evenodd" d="M22.3997 7.08398C21.7743 7.08398 21.2676 7.5923 21.2676 8.21808C21.2676 8.84391 21.7743 9.35086 22.3997 9.35086C23.0251 9.35086 23.5317 8.84386 23.5317 8.21808C23.5317 7.5923 23.0251 7.08398 22.3997 7.08398Z" fill="#BEECE1"/>
<path fill-rule="evenodd" clip-rule="evenodd" d="M22.2708 12.0088C21.6453 12.0088 21.1387 12.5171 21.1387 13.1429C21.1387 13.7687 21.6453 14.2757 22.2708 14.2757C22.8962 14.2757 23.4041 13.7687 23.4041 13.1429C23.4041 12.5171 22.8962 12.0088 22.2708 12.0088Z" fill="#BEECE1"/>
<path d="M5.77591 5.83616C5.70565 5.65645 5.5324 5.53813 5.33941 5.53809H5.33932C5.14638 5.53809 4.97309 5.6563 4.90277 5.83602L3.5187 9.37302C3.42434 9.6141 3.5433 9.88602 3.78438 9.98038C3.84049 10.0023 3.89829 10.0127 3.9551 10.0127C4.14246 10.0127 4.31937 9.89966 4.39174 9.71469L4.62649 9.11484H6.05107L6.28554 9.71455C6.37976 9.95568 6.65173 10.0748 6.89276 9.98043C7.13393 9.88616 7.25295 9.61429 7.15868 9.37316L5.77591 5.83616ZM4.99338 8.17729L5.33913 7.2937L5.6846 8.17729H4.99338Z" fill="black"/>
<path d="M8.36719 10.0126C8.62603 10.0126 8.83594 9.80273 8.83594 9.54384V6.00684C8.83594 5.74795 8.62603 5.53809 8.36719 5.53809C8.10834 5.53809 7.89844 5.74795 7.89844 6.00684V9.54384C7.89844 9.80273 8.10834 10.0126 8.36719 10.0126Z" fill="black"/>
<path d="M22.2699 11.54C21.55 11.54 20.9398 12.0183 20.739 12.6741H19.7188L19.3304 10.9936C19.2819 10.7837 19.0889 10.6303 18.8737 10.6303H17.9419C18.1282 10.0625 18.2554 9.42532 18.2926 8.68643L20.8685 8.6869C21.0693 9.34203 21.6794 9.81978 22.3992 9.81978C23.2819 9.81978 24 9.10132 24 8.2182C24 7.33437 23.2819 6.61535 22.3992 6.61535C21.6793 6.61535 21.0691 7.09362 20.8684 7.7494L18.2911 7.74893C18.2555 7.0699 18.143 6.41937 17.9561 5.80484H18.8736C19.0888 5.80484 19.2817 5.65146 19.3303 5.4416L19.7187 3.76104H20.7391C20.9399 4.41612 21.5501 4.89387 22.2698 4.89387C23.1533 4.89387 23.872 4.17542 23.872 3.29229C23.872 2.40917 23.1533 1.69076 22.2698 1.69076C21.5501 1.69076 20.94 2.16846 20.7391 2.82354H19.3459C19.1319 2.82354 18.9517 2.96712 18.8956 3.1631C18.8933 3.17042 18.8912 3.1782 18.8892 3.18678L18.5009 4.86734H17.6007C17.2775 4.16398 16.8456 3.52029 16.3097 2.95015C16.1325 2.76148 15.8359 2.75229 15.6472 2.92962C15.4585 3.10695 15.4493 3.40357 15.6266 3.5922C15.9904 3.9792 16.299 4.40623 16.551 4.86734H15.0591C14.8003 4.86734 14.5904 5.0772 14.5904 5.33609C14.5904 5.59498 14.8003 5.80484 15.0591 5.80484H16.9687C17.1827 6.41164 17.3117 7.06292 17.3523 7.74875L14.4562 7.74818C14.1974 7.74818 13.9875 7.958 13.9874 8.21684C13.9874 8.47573 14.1972 8.68564 14.4561 8.68568L17.3531 8.68625C17.31 9.43868 17.1612 10.0703 16.9444 10.6303H15.0592C14.8003 10.6303 14.5904 10.8402 14.5904 11.0991C14.5904 11.358 14.8003 11.5678 15.0592 11.5678H16.4917C16.2015 12.0706 15.8643 12.5302 15.5199 12.999C14.786 13.9983 14.0294 15.0293 13.7201 16.5306H8.17598C8.00953 15.7239 7.71736 15.0633 7.39547 14.5024C7.79991 14.3959 8.09944 14.028 8.09944 13.5904V13.4559C8.47458 13.3444 8.83594 13.1944 9.17972 13.0072L9.27563 13.1032C9.45356 13.2812 9.69056 13.3792 9.94298 13.3792C10.1954 13.3792 10.4324 13.2812 10.6103 13.1032L11.5511 12.1618C11.9189 11.7938 11.9189 11.195 11.5511 10.8271L11.4548 10.7308C11.642 10.3867 11.792 10.0249 11.9034 9.64939H12.0375C12.5579 9.64939 12.9813 9.22587 12.9813 8.70532V7.3745C12.9813 6.85395 12.5579 6.43043 12.0375 6.43043H11.9034C11.792 6.05492 11.642 5.69318 11.4548 5.34903L11.5511 5.25275C11.9188 4.88478 11.9188 4.28604 11.5511 3.91803L10.6103 2.97664C10.4324 2.79865 10.1954 2.70064 9.94298 2.70064C9.69056 2.70064 9.45356 2.79865 9.27563 2.97668L9.17972 3.07264C8.83589 2.88546 8.47458 2.73542 8.09944 2.62399V2.48946C8.09944 2.41043 8.08861 2.33403 8.07023 2.26057C8.96855 1.81517 9.95302 1.58806 10.9425 1.60221C10.9468 1.60226 10.9511 1.60226 10.9553 1.60221C11.4148 1.59621 11.8755 1.64187 12.326 1.73843C12.5791 1.79253 12.8283 1.63142 12.8826 1.37825C12.9368 1.12512 12.7755 0.875932 12.5224 0.821698C12.0054 0.710932 11.4761 0.657964 10.9492 0.664714C9.70453 0.647792 8.47167 0.960964 7.36739 1.5702C7.29919 1.5545 7.22855 1.54535 7.15566 1.54535H5.82567C5.30527 1.54535 4.88189 1.96887 4.88189 2.48942V2.62395C4.50675 2.73537 4.14544 2.88542 3.80161 3.07259L3.7057 2.97664C3.52777 2.79865 3.29077 2.70064 3.03834 2.70064C2.78592 2.70064 2.54892 2.79865 2.37098 2.97668L1.43025 3.91821C1.06252 4.28618 1.06252 4.88492 1.43025 5.25293L1.52648 5.34921C1.33936 5.69337 1.18931 6.0551 1.07789 6.43062H0.943828C0.423375 6.43057 0 6.85409 0 7.37464V8.70546C0 9.22601 0.423375 9.64953 0.943781 9.64953H1.07784C1.18927 10.025 1.33931 10.3868 1.52644 10.7309L1.4302 10.8272C1.06242 11.1952 1.06242 11.794 1.4302 12.1619L2.37094 13.1033C2.54888 13.2813 2.78588 13.3793 3.0383 13.3793C3.29072 13.3793 3.52772 13.2813 3.70566 13.1033L3.80156 13.0073C4.14534 13.1944 4.5067 13.3445 4.88184 13.456V13.5905C4.88184 14.111 5.30522 14.5346 5.82562 14.5346H6.31495C6.70716 15.1351 7.09767 15.8671 7.27753 16.8181C6.90075 17.0919 6.65517 17.5356 6.65517 18.0358C6.65517 18.4377 6.81356 18.803 7.07077 19.0734C6.81356 19.3435 6.65517 19.7085 6.65517 20.11C6.65517 20.8148 7.14244 21.4077 7.79784 21.5706V22.5076C7.79784 23.5159 8.61778 24.3363 9.62559 24.3363H12.2711C13.2796 24.3363 14.1002 23.5159 14.1002 22.5076V21.5705C14.7549 21.4076 15.2415 20.8147 15.2415 20.11C15.2415 19.7085 15.0833 19.3436 14.8263 19.0734C15.0833 18.803 15.2415 18.4377 15.2415 18.0358C15.2415 17.5353 14.9958 17.0913 14.6189 16.8175C14.8738 15.4629 15.5558 14.534 16.2755 13.5541C16.729 12.9367 17.1892 12.3093 17.5567 11.5679H18.5009L18.8893 13.2485C18.9378 13.4584 19.1308 13.6117 19.346 13.6117H20.7391C20.94 14.2668 21.5502 14.7445 22.2699 14.7445C23.1533 14.7445 23.872 14.0261 23.872 13.143C23.872 12.2591 23.1533 11.54 22.2699 11.54ZM22.3992 7.5529C22.7649 7.5529 23.0625 7.8514 23.0625 8.21825C23.0625 8.58443 22.7649 8.88232 22.3992 8.88232C22.0335 8.88232 21.7359 8.58443 21.7359 8.21825C21.7358 7.8514 22.0334 7.5529 22.3992 7.5529ZM22.2699 2.62831C22.6364 2.62831 22.9345 2.9262 22.9345 3.29234C22.9345 3.65853 22.6364 3.95642 22.2699 3.95642C21.9041 3.95642 21.6066 3.65853 21.6066 3.29234C21.6065 2.9262 21.9041 2.62831 22.2699 2.62831ZM7.16194 13.094V13.5904C7.16194 13.5932 7.15786 13.597 7.15566 13.597H6.56494H6.5618H5.82567C5.82347 13.597 5.81939 13.5932 5.81939 13.5904V13.094C5.81939 12.8749 5.66752 12.685 5.45372 12.6368C4.92877 12.5185 4.43213 12.3122 3.97767 12.0237C3.90042 11.9746 3.81323 11.9506 3.72661 11.9506C3.60548 11.9506 3.48539 11.9975 3.39492 12.088L3.04261 12.4405C3.04059 12.4426 3.03609 12.4425 3.03408 12.4405L2.09334 11.4991C2.09156 11.4973 2.09156 11.4916 2.09334 11.4898L2.44566 11.1373C2.60072 10.9821 2.62744 10.7402 2.50997 10.555C2.22164 10.1001 2.01544 9.60312 1.89717 9.07775C1.84903 8.86385 1.65909 8.71193 1.43986 8.71193H0.943781C0.941578 8.71193 0.9375 8.70809 0.9375 8.70537V7.37454C0.9375 7.37182 0.941578 7.36798 0.943781 7.36798H1.43986C1.65909 7.36798 1.84903 7.21606 1.89717 7.00217C2.01544 6.47684 2.22164 5.97982 2.50997 5.52495C2.62744 5.33965 2.60072 5.09773 2.44566 4.94262L2.09334 4.59012C2.09152 4.58829 2.09152 4.58257 2.09334 4.58079L3.03408 3.63945C3.03609 3.63743 3.04059 3.63748 3.04261 3.63945L3.39492 3.99195C3.55017 4.14724 3.79238 4.17396 3.97772 4.05635C4.43222 3.76784 4.92886 3.56154 5.45372 3.44323C5.66756 3.39504 5.81944 3.2051 5.81944 2.98596V2.48956C5.81944 2.48684 5.82352 2.483 5.82572 2.483H7.1557C7.15791 2.483 7.16198 2.48684 7.16198 2.48956V2.98596C7.16198 3.20515 7.31386 3.39509 7.5277 3.44323C8.05256 3.5615 8.5492 3.76779 9.0037 4.05635C9.18895 4.17401 9.43125 4.14729 9.5865 3.99195L9.93881 3.63945C9.94083 3.63743 9.94533 3.63748 9.94734 3.63945L10.8881 4.58079C10.8899 4.58262 10.8899 4.58834 10.8881 4.59012L10.5358 4.94262C10.3807 5.09778 10.354 5.3397 10.4715 5.52495C10.7598 5.97982 10.966 6.47684 11.0843 7.00217C11.1324 7.21606 11.3223 7.36798 11.5416 7.36798H12.0376C12.0398 7.36798 12.0439 7.37182 12.0439 7.37454V8.70537C12.0439 8.70809 12.0398 8.71193 12.0376 8.71193H11.5416C11.3223 8.71193 11.1324 8.86385 11.0843 9.07775C10.966 9.60312 10.7598 10.1001 10.4715 10.555C10.354 10.7402 10.3807 10.9821 10.5358 11.1373L10.8881 11.4898C10.8899 11.4916 10.8899 11.4973 10.8881 11.4991L9.94734 12.4405C9.94533 12.4425 9.94083 12.4425 9.93881 12.4405L9.5865 12.0879C9.43125 11.9326 9.189 11.9059 9.0037 12.0235C8.54925 12.312 8.05261 12.5183 7.52766 12.6366C7.31381 12.685 7.16194 12.8749 7.16194 13.094ZM13.1627 22.5076C13.1627 22.9989 12.7628 23.3987 12.2711 23.3987H9.62564C9.13472 23.3987 8.73539 22.999 8.73539 22.5076V21.6151H13.1627L13.1627 22.5076ZM13.737 20.6776H8.16113C7.84772 20.6776 7.59277 20.4229 7.59277 20.11C7.59277 19.7969 7.84772 19.5423 8.16113 19.5423H13.737C14.0497 19.5423 14.3041 19.797 14.3041 20.11C14.304 20.4229 14.0497 20.6776 13.737 20.6776ZM13.737 18.6048H8.16113C7.84772 18.6048 7.59277 18.3496 7.59277 18.0358C7.59277 17.7228 7.84772 17.4682 8.16113 17.4682H13.737C14.0497 17.4682 14.3041 17.7229 14.3041 18.0358C14.304 18.3495 14.0497 18.6048 13.737 18.6048ZM22.2699 13.8069C21.9041 13.8069 21.6066 13.509 21.6066 13.1429C21.6066 12.776 21.9042 12.4775 22.2699 12.4775C22.6364 12.4775 22.9345 12.776 22.9345 13.1429C22.9345 13.509 22.6364 13.8069 22.2699 13.8069Z" fill="black"/>
<path d="M14.1284 2.41895L14.1311 2.42026C14.1982 2.45383 14.2694 2.46972 14.3395 2.46972C14.5112 2.46972 14.6764 2.37437 14.7586 2.20994C14.8744 1.97837 14.7792 1.69614 14.5476 1.58036C14.3161 1.46458 14.0345 1.55842 13.9187 1.78998C13.803 2.02164 13.8968 2.30317 14.1284 2.41895Z" fill="black"/>
</g>
<defs>
<clipPath id="clip0_327_4939">
<rect width="24" height="24" fill="white" transform="translate(0 0.5)"/>
</clipPath>
</defs>
</svg>
