<svg width="24" height="25" viewBox="0 0 24 25" fill="none" xmlns="http://www.w3.org/2000/svg">
<g clip-path="url(#clip0_326_4895)">
<path d="M13.875 5.375C15.1176 5.375 16.125 4.36764 16.125 3.125C16.125 1.88236 15.1176 0.875 13.875 0.875C12.6324 0.875 11.625 1.88236 11.625 3.125C11.625 4.36764 12.6324 5.375 13.875 5.375Z" fill="#90CAF9"/>
<path d="M15.8505 8.60184C15.7549 7.45059 17.073 7.39246 17.583 7.55746C18.2468 7.77496 18.3124 8.56246 18.3124 8.56246C18.3124 8.56246 19.4655 8.23621 20.1761 8.93746C20.5736 9.32746 20.8136 10.625 20.8136 10.625C21.2098 10.539 21.6234 10.5871 21.9893 10.7618C22.6118 11.0543 22.9024 11.66 22.9924 12.875C23.0824 14.09 23.7105 17.2137 23.6243 18.8562C23.538 20.4987 22.8743 22.9606 22.8743 22.9606L23.6243 24.1381H16.218L15.7718 23.0412C15.7718 23.0412 14.0168 22.1675 13.5911 21.2412C13.1655 20.315 12.3743 19.1187 11.8118 18.1643C11.2493 17.21 11.0074 16.0418 10.443 15.0312C9.87863 14.0206 8.91863 13.2256 8.68238 12.5675C8.44613 11.9093 9.14363 11.18 10.3811 11.6525C11.6186 12.125 12.3255 12.89 12.6499 13.6081C12.8408 14.07 13.1507 14.4731 13.548 14.7762L13.4993 14.75C13.4993 14.75 13.7299 11.9375 13.6868 11.24C13.6436 10.5425 13.5611 2.93934 13.7355 2.73871C13.9099 2.53809 14.8399 1.90434 15.2805 2.77434C15.5036 3.21684 15.7118 5.98621 15.8599 8.60184" fill="#FCD197"/>
<path d="M16.2195 24.4996C16.145 24.4995 16.0721 24.4771 16.0104 24.4354C15.9486 24.3936 15.9006 24.3344 15.8727 24.2653L15.4789 23.2978C15.0289 23.0596 13.6658 22.2815 13.2533 21.3834C12.8594 20.5943 12.4212 19.828 11.9408 19.0884C11.7833 18.8353 11.6295 18.5896 11.4889 18.3571C11.1847 17.8203 10.9335 17.2552 10.7389 16.6696C10.5721 16.1696 10.3672 15.6832 10.1258 15.2146C9.85311 14.7623 9.53928 14.3362 9.1883 13.9415C8.8133 13.4878 8.48142 13.0959 8.33705 12.6946C8.26321 12.4925 8.2496 12.2734 8.29786 12.0637C8.34612 11.854 8.45417 11.6629 8.60892 11.5134C9.04205 11.0896 9.75642 11.0109 10.5233 11.3034C11.6895 11.7496 12.5633 12.5146 12.9945 13.454C13.1629 13.8656 13.4395 14.2239 13.7952 14.4909C13.8579 14.5587 13.8934 14.6474 13.8948 14.7398C13.8962 14.8322 13.8634 14.9219 13.8027 14.9916C13.7421 15.0613 13.6578 15.1062 13.5661 15.1176C13.4744 15.129 13.3817 15.1061 13.3058 15.0534C12.8674 14.7142 12.5244 14.2671 12.3102 13.7559C12.1114 13.3171 11.5808 12.5034 10.2477 11.9953C9.68517 11.7778 9.2933 11.8753 9.12267 12.0403C9.06969 12.0892 9.03261 12.1528 9.01623 12.223C8.99985 12.2932 9.00493 12.3667 9.0308 12.434C9.13017 12.7096 9.43204 13.0715 9.75267 13.454C10.1335 13.8837 10.4731 14.3482 10.767 14.8415C11.0323 15.3498 11.2567 15.8783 11.4383 16.4221C11.6145 16.9583 11.8418 17.4763 12.117 17.969C12.2652 18.1996 12.417 18.4434 12.5633 18.6871C13.0629 19.4525 13.5174 20.2464 13.9245 21.0646C14.2283 21.7265 15.4752 22.4596 15.9308 22.6865C16.014 22.7241 16.0807 22.7908 16.1183 22.874L16.5645 23.9709C16.5903 24.0282 16.6013 24.0911 16.5964 24.1538C16.5915 24.2165 16.5709 24.2769 16.5366 24.3296C16.5022 24.3822 16.4552 24.4254 16.3998 24.4551C16.3444 24.4848 16.2824 24.5001 16.2195 24.4996Z" fill="#404040"/>
<path d="M23.6257 24.5C23.5627 24.5003 23.5006 24.4846 23.4452 24.4544C23.3898 24.4243 23.3429 24.3806 23.3089 24.3275L22.5589 23.15C22.5306 23.1061 22.5118 23.0567 22.5037 23.005C22.4956 22.9533 22.4985 22.9006 22.512 22.85C22.512 22.8257 23.1682 20.4125 23.2507 18.8244C23.3051 17.7819 23.0632 16.0738 22.8532 14.6994C22.7445 13.9494 22.6507 13.3194 22.6189 12.89C22.5289 11.66 22.2439 11.2813 21.8295 11.09C21.5451 10.9535 21.224 10.9127 20.9145 10.9738C20.8639 10.9889 20.8108 10.9931 20.7585 10.9863C20.7062 10.9794 20.6559 10.9616 20.611 10.934C20.566 10.9064 20.5274 10.8696 20.4977 10.8261C20.4679 10.7825 20.4476 10.7332 20.4382 10.6813C20.3464 10.1938 20.1214 9.41192 19.9057 9.20005C19.3639 8.66567 18.4151 8.91879 18.4057 8.92067C18.3526 8.93549 18.2968 8.93839 18.2424 8.92916C18.1879 8.91993 18.1362 8.8988 18.0909 8.86728C18.0456 8.83576 18.0078 8.79462 17.9802 8.7468C17.9526 8.69899 17.936 8.64568 17.9314 8.59067C17.9314 8.57192 17.8732 8.0488 17.4607 7.9138C17.2039 7.82942 16.677 7.8313 16.3995 8.05067C16.3239 8.11196 16.2665 8.19273 16.2335 8.28426C16.2004 8.37579 16.193 8.47461 16.212 8.57005C16.2202 8.6695 16.1886 8.76814 16.124 8.84427C16.0595 8.9204 15.9674 8.96778 15.8679 8.97598C15.7685 8.98419 15.6698 8.95255 15.5937 8.88802C15.5176 8.8235 15.4702 8.73138 15.462 8.63192C15.4332 8.41263 15.462 8.18963 15.5455 7.98483C15.629 7.78003 15.7644 7.60047 15.9382 7.46379C16.482 7.03442 17.3051 7.07567 17.6951 7.2013C17.9069 7.27431 18.0984 7.39649 18.2539 7.55782C18.4094 7.71916 18.5244 7.91504 18.5895 8.12942C19.0564 8.07692 19.8514 8.09192 20.4345 8.66567C20.7739 8.99942 20.997 9.74192 21.102 10.1975C21.4601 10.1848 21.8162 10.2574 22.1407 10.4094C22.8907 10.7638 23.2657 11.4875 23.3595 12.8338C23.3895 13.2369 23.4814 13.8632 23.5882 14.5907C23.7945 15.9969 24.0514 17.7463 23.9932 18.8619C23.9182 20.3 23.4307 22.3025 23.2714 22.8838L23.9351 23.9225C23.9712 23.9788 23.9916 24.0436 23.9942 24.1103C23.9969 24.1771 23.9816 24.2433 23.9501 24.3022C23.9185 24.3611 23.8718 24.4104 23.8148 24.4452C23.7578 24.48 23.6925 24.4989 23.6257 24.5Z" fill="#404040"/>
<path d="M18.6911 13.2197C18.5952 13.2198 18.5028 13.1831 18.433 13.1172C18.3632 13.0513 18.3214 12.9611 18.3161 12.8653C18.2711 12.0834 17.9411 8.63153 17.9411 8.59591C17.9365 8.54666 17.9415 8.49698 17.9561 8.44969C17.9706 8.4024 17.9943 8.35844 18.0258 8.32031C18.0573 8.28218 18.096 8.25063 18.1397 8.22746C18.1834 8.20429 18.2313 8.18996 18.2805 8.18528C18.38 8.17583 18.4791 8.20628 18.5561 8.26993C18.5942 8.30144 18.6258 8.34016 18.649 8.38386C18.6721 8.42757 18.6865 8.47541 18.6911 8.52466C18.7043 8.66716 19.0268 12.0253 19.0661 12.8222C19.0718 12.9213 19.0378 13.0187 18.9717 13.0929C18.9056 13.1671 18.8128 13.212 18.7136 13.2178L18.6911 13.2197Z" fill="#404040"/>
<path d="M13.5006 16.2103H13.4781C13.3789 16.2045 13.2861 16.1595 13.22 16.0854C13.1539 16.0112 13.12 15.9138 13.1256 15.8146C13.1875 14.7346 13.3394 11.8153 13.3 11.2678C13.2719 10.8928 13.2419 8.71589 13.2381 6.80526C13.2381 2.73276 13.3187 2.63151 13.4369 2.49276C13.6056 2.30526 14.1719 1.88901 14.7494 1.96026C14.9351 1.98499 15.1114 2.05739 15.2609 2.17042C15.4104 2.28345 15.528 2.43326 15.6025 2.60526C16.0562 3.50339 16.3937 11.8378 16.4575 13.499C16.4612 13.5985 16.4253 13.6953 16.3576 13.7683C16.2899 13.8413 16.196 13.8843 16.0965 13.8881C15.9971 13.8918 15.9002 13.8559 15.8273 13.7882C15.7543 13.7205 15.7112 13.6266 15.7075 13.5271C15.52 8.79651 15.1956 3.47901 14.9331 2.94276C14.8225 2.72526 14.7044 2.71026 14.6594 2.70464C14.4399 2.71166 14.2294 2.79372 14.0631 2.93714C13.9506 3.82214 13.9862 10.3359 14.0519 11.2153C14.1044 11.924 13.8887 15.7003 13.8794 15.8615C13.8727 15.957 13.8297 16.0463 13.7593 16.1112C13.6889 16.176 13.5963 16.2115 13.5006 16.2103Z" fill="#404040"/>
<path d="M21.0251 13.5461H20.9876C20.9386 13.5411 20.8911 13.5266 20.8477 13.5033C20.8043 13.48 20.7659 13.4484 20.7348 13.4103C20.7036 13.3721 20.6803 13.3282 20.6661 13.2811C20.6519 13.2339 20.6471 13.1844 20.652 13.1354C20.7122 12.3219 20.6451 11.5039 20.4533 10.7111C20.4388 10.6627 20.4342 10.612 20.4398 10.5619C20.4454 10.5117 20.4611 10.4632 20.4859 10.4193C20.5106 10.3754 20.544 10.3369 20.584 10.3061C20.624 10.2754 20.6698 10.2531 20.7187 10.2404C20.7675 10.2278 20.8184 10.2252 20.8683 10.2327C20.9182 10.2402 20.966 10.2577 21.009 10.2841C21.052 10.3106 21.0892 10.3454 21.1183 10.3865C21.1475 10.4277 21.1681 10.4743 21.1789 10.5236C21.395 11.403 21.4697 12.3113 21.4001 13.2142C21.3895 13.306 21.3453 13.3906 21.2761 13.4519C21.2069 13.5131 21.1175 13.5467 21.0251 13.5461Z" fill="#404040"/>
<path d="M11.625 3.5H0.375C0.275544 3.5 0.180161 3.46049 0.109835 3.39016C0.0395088 3.31984 0 3.22446 0 3.125C0 3.02554 0.0395088 2.93016 0.109835 2.85984C0.180161 2.78951 0.275544 2.75 0.375 2.75H11.625C11.7245 2.75 11.8198 2.78951 11.8902 2.85984C11.9605 2.93016 12 3.02554 12 3.125C12 3.22446 11.9605 3.31984 11.8902 3.39016C11.8198 3.46049 11.7245 3.5 11.625 3.5Z" fill="#404040"/>
<path d="M23.625 3.5H16.875C16.7755 3.5 16.6802 3.46049 16.6098 3.39016C16.5395 3.31984 16.5 3.22446 16.5 3.125C16.5 3.02554 16.5395 2.93016 16.6098 2.85984C16.6802 2.78951 16.7755 2.75 16.875 2.75H23.625C23.7245 2.75 23.8198 2.78951 23.8902 2.85984C23.9605 2.93016 24 3.02554 24 3.125C24 3.22446 23.9605 3.31984 23.8902 3.39016C23.8198 3.46049 23.7245 3.5 23.625 3.5Z" fill="#404040"/>
<path d="M12.261 4.96611C12.1633 4.96521 12.0697 4.92619 12.0004 4.85736C11.5848 4.44098 11.3262 3.89365 11.2682 3.30825C11.2103 2.72285 11.3567 2.13545 11.6826 1.64572C12.0085 1.156 12.4938 0.794109 13.0562 0.621475C13.6185 0.448841 14.2233 0.476094 14.7679 0.69861C14.8134 0.717324 14.8548 0.744826 14.8898 0.779547C14.9247 0.814268 14.9524 0.855528 14.9714 0.90097C14.9904 0.946413 15.0002 0.995149 15.0004 1.04439C15.0005 1.09364 14.9909 1.14243 14.9722 1.18799C14.9344 1.27998 14.8616 1.3532 14.7699 1.39153C14.7244 1.4105 14.6757 1.42035 14.6264 1.42049C14.5772 1.42063 14.5284 1.41107 14.4829 1.39236C14.0985 1.2342 13.6712 1.21409 13.2736 1.33546C12.8761 1.45682 12.5329 1.71215 12.3024 2.05803C12.0719 2.4039 11.9683 2.81895 12.0093 3.23257C12.0503 3.64619 12.2333 4.03284 12.5272 4.32674C12.5794 4.37917 12.6148 4.44585 12.6292 4.51839C12.6435 4.59092 12.6361 4.66608 12.6078 4.73441C12.5796 4.80273 12.5317 4.86119 12.4704 4.90241C12.409 4.94364 12.3368 4.9658 12.2629 4.96611H12.261Z" fill="#404040"/>
<path d="M12.1875 22.25H10.5C10.4005 22.25 10.3052 22.2105 10.2348 22.1402C10.1645 22.0698 10.125 21.9745 10.125 21.875C10.125 21.7755 10.1645 21.6802 10.2348 21.6098C10.3052 21.5395 10.4005 21.5 10.5 21.5H12.1875C12.287 21.5 12.3823 21.5395 12.4527 21.6098C12.523 21.6802 12.5625 21.7755 12.5625 21.875C12.5625 21.9745 12.523 22.0698 12.4527 22.1402C12.3823 22.2105 12.287 22.25 12.1875 22.25Z" fill="#404040"/>
<path d="M8.25 24.125C9.49264 24.125 10.5 23.1176 10.5 21.875C10.5 20.6324 9.49264 19.625 8.25 19.625C7.00736 19.625 6 20.6324 6 21.875C6 23.1176 7.00736 24.125 8.25 24.125Z" fill="#90CAF9"/>
<path d="M8.25 24.5C7.73083 24.5 7.22331 24.346 6.79163 24.0576C6.35995 23.7692 6.0235 23.3592 5.82482 22.8795C5.62614 22.3999 5.57415 21.8721 5.67544 21.3629C5.77673 20.8537 6.02673 20.386 6.39385 20.0188C6.76096 19.6517 7.22869 19.4017 7.73789 19.3004C8.24709 19.1992 8.77489 19.2511 9.25454 19.4498C9.7342 19.6485 10.1442 19.985 10.4326 20.4166C10.721 20.8483 10.875 21.3558 10.875 21.875C10.875 22.5712 10.5984 23.2389 10.1062 23.7312C9.61387 24.2234 8.94619 24.5 8.25 24.5ZM8.25 20C7.87916 20 7.51665 20.11 7.20831 20.316C6.89996 20.522 6.65964 20.8149 6.51773 21.1575C6.37581 21.5001 6.33868 21.8771 6.41103 22.2408C6.48338 22.6045 6.66195 22.9386 6.92418 23.2008C7.1864 23.463 7.52049 23.6416 7.88421 23.714C8.24792 23.7863 8.62492 23.7492 8.96753 23.6073C9.31014 23.4654 9.60298 23.225 9.80901 22.9167C10.015 22.6084 10.125 22.2458 10.125 21.875C10.125 21.3777 9.92746 20.9008 9.57583 20.5492C9.2242 20.1975 8.74728 20 8.25 20Z" fill="#404040"/>
<path d="M7.125 12.875H4.875C4.77554 12.875 4.68016 12.8355 4.60984 12.7652C4.53951 12.6948 4.5 12.5995 4.5 12.5C4.5 12.4005 4.53951 12.3052 4.60984 12.2348C4.68016 12.1645 4.77554 12.125 4.875 12.125H7.125C7.22446 12.125 7.31984 12.1645 7.39017 12.2348C7.46049 12.3052 7.5 12.4005 7.5 12.5C7.5 12.5995 7.46049 12.6948 7.39017 12.7652C7.31984 12.8355 7.22446 12.875 7.125 12.875Z" fill="#404040"/>
<path d="M2.625 14.75C3.86764 14.75 4.875 13.7426 4.875 12.5C4.875 11.2574 3.86764 10.25 2.625 10.25C1.38236 10.25 0.375 11.2574 0.375 12.5C0.375 13.7426 1.38236 14.75 2.625 14.75Z" fill="#90CAF9"/>
<path d="M2.625 15.125C2.10583 15.125 1.59831 14.971 1.16663 14.6826C0.73495 14.3942 0.398497 13.9842 0.199817 13.5045C0.00113739 13.0249 -0.0508464 12.4971 0.0504398 11.9879C0.151726 11.4787 0.401733 11.011 0.768846 10.6438C1.13596 10.2767 1.60369 10.0267 2.11289 9.92544C2.62209 9.82415 3.14989 9.87614 3.62955 10.0748C4.1092 10.2735 4.51917 10.61 4.80761 11.0416C5.09605 11.4733 5.25 11.9808 5.25 12.5C5.25 13.1962 4.97344 13.8639 4.48116 14.3562C3.98887 14.8484 3.32119 15.125 2.625 15.125ZM2.625 10.625C2.25416 10.625 1.89165 10.735 1.58331 10.941C1.27496 11.147 1.03464 11.4399 0.892727 11.7825C0.750813 12.1251 0.713681 12.5021 0.786029 12.8658C0.858376 13.2295 1.03695 13.5636 1.29918 13.8258C1.5614 14.088 1.89549 14.2666 2.25921 14.339C2.62292 14.4113 2.99992 14.3742 3.34253 14.2323C3.68514 14.0904 3.97798 13.85 4.18401 13.5417C4.39003 13.2334 4.5 12.8708 4.5 12.5C4.5 12.2538 4.4515 12.01 4.35728 11.7825C4.26305 11.555 4.12494 11.3483 3.95083 11.1742C3.77672 11.0001 3.57002 10.862 3.34253 10.7677C3.11505 10.6735 2.87123 10.625 2.625 10.625Z" fill="#404040"/>
<path d="M6 22.25H0.375C0.275544 22.25 0.180161 22.2105 0.109835 22.1402C0.0395088 22.0698 0 21.9745 0 21.875C0 21.7755 0.0395088 21.6802 0.109835 21.6098C0.180161 21.5395 0.275544 21.5 0.375 21.5H6C6.09946 21.5 6.19484 21.5395 6.26517 21.6098C6.33549 21.6802 6.375 21.7755 6.375 21.875C6.375 21.9745 6.33549 22.0698 6.26517 22.1402C6.19484 22.2105 6.09946 22.25 6 22.25Z" fill="#404040"/>
</g>
<defs>
<clipPath id="clip0_326_4895">
<rect width="24" height="24" fill="white" transform="translate(0 0.5)"/>
</clipPath>
</defs>
</svg>
